<?xml version="1.0" encoding="utf-8"?>
<!-- Generator: Adobe Illustrator 24.0.1, SVG Export Plug-In . SVG Version: 6.00 Build 0)  -->
<svg version="1.1" id="Warstwa_1" xmlns="http://www.w3.org/2000/svg" xmlns:xlink="http://www.w3.org/1999/xlink" x="0px" y="0px"
	 viewBox="0 0 332.14 172.52" style="enable-background:new 0 0 332.14 172.52;" xml:space="preserve">
<style type="text/css">
	.st0{fill:#00AEEF;}
</style>
<g>
	<path d="M58.25,65.65H58.2c-0.15,0.95-0.33,2-0.55,3.14c-0.22,1.14-0.39,2.17-0.5,3.08H30.73l22.84-35.5H40.53
		c-1.03,0-2.13,0.32-3.3,0.96c-1.17,0.64-2.18,1.48-3.03,2.5l-0.88,1.05h-0.44c0.18-0.73,0.4-1.56,0.66-2.48
		c0.26-0.92,0.48-1.74,0.66-2.48h0.06l0.11-0.39h23.56l-22.95,35.5h15.74c1.14,0,2.26-0.37,3.36-1.1c1.1-0.73,1.96-1.67,2.59-2.81
		l0.94-1.76c0.07,0.04,0.17,0.07,0.28,0.11C58.05,65.56,58.18,65.61,58.25,65.65z"/>
	<path d="M84.56,71.87v-0.55l0.88-0.06c0.81-0.07,1.38-0.38,1.71-0.91c0.33-0.53,0.35-1.2,0.06-2.01l-3.52-9.47H69.42l-3.19,9.14
		c-0.22,0.92-0.13,1.67,0.28,2.26c0.4,0.59,1.06,0.92,1.98,0.99l0.61,0.06v0.55h-7.93v-0.55c0.84-0.11,1.58-0.36,2.2-0.74
		s1.14-1,1.54-1.84l12.05-34.02h0.83l13.1,33.91c0.84,1.8,2.02,2.7,3.52,2.7v0.55H84.56z M83.35,58.05L76.3,39.06L69.7,58.05H83.35z
		"/>
	<path d="M104.05,35.54l0.06,0.55l-0.5,0.06c-0.81,0.07-1.37,0.39-1.68,0.94c-0.31,0.55-0.36,1.21-0.14,1.98l9.19,28.73l9.58-32.81
		h0.83l10.9,32.53l8.42-28.46c0.26-0.81,0.2-1.49-0.17-2.04s-0.97-0.84-1.82-0.88l-0.94-0.06v-0.55h7.65v0.55L145,36.15
		c-0.73,0.07-1.4,0.38-2.01,0.91c-0.61,0.53-1.04,1.2-1.29,2.01l-10.13,33.63h-0.83l-10.95-32.2l-9.36,32.2h-0.88l-11.5-34.02
		c-0.37-0.84-0.81-1.46-1.32-1.84c-0.51-0.39-1.12-0.63-1.82-0.74v-0.55H104.05z"/>
	<path d="M169.88,71.87v-0.55l0.88-0.06c0.81-0.07,1.38-0.38,1.71-0.91c0.33-0.53,0.35-1.2,0.06-2.01L169,58.88h-14.26l-3.19,9.14
		c-0.22,0.92-0.13,1.67,0.28,2.26c0.4,0.59,1.06,0.92,1.98,0.99l0.61,0.06v0.55h-7.93v-0.55c0.84-0.11,1.58-0.36,2.2-0.74
		c0.62-0.39,1.14-1,1.54-1.84l12.05-34.02h0.83l13.1,33.91c0.84,1.8,2.02,2.7,3.52,2.7v0.55H169.88z M168.67,58.05l-7.05-18.99
		l-6.61,18.99H168.67z"/>
	<path d="M217.22,44.13l-0.6-0.11c-0.11-0.22-0.22-0.46-0.33-0.74c-0.11-0.27-0.22-0.52-0.33-0.74c-0.62-1.31-1.51-2.49-2.66-3.53
		c-1.15-1.04-2.37-1.76-3.65-2.16c-2.45-0.51-4.85-0.77-7.2-0.77c-2.2,0-4.23,0.44-6.1,1.32c-1.87,0.88-3.48,2.1-4.84,3.66
		c-1.36,1.56-2.42,3.41-3.19,5.56c-0.77,2.15-1.15,4.5-1.15,7.07c0,2.57,0.38,4.93,1.15,7.07c0.77,2.15,1.83,4,3.19,5.56
		c1.36,1.56,2.97,2.78,4.84,3.66s3.9,1.32,6.1,1.32c1.61,0,3.24-0.11,4.89-0.33c0.92-0.15,1.82-0.4,2.72-0.77
		c0.9-0.37,1.73-0.83,2.5-1.38s1.46-1.16,2.06-1.84c0.6-0.68,1.07-1.4,1.4-2.17c0.11-0.22,0.22-0.47,0.33-0.74
		c0.11-0.28,0.22-0.52,0.33-0.74h0.5v5.45c0-0.04-0.02-0.11-0.06-0.22c-0.04-0.04-0.07-0.09-0.11-0.17l0.22,0.39
		c-0.84,0.48-1.85,0.93-3.03,1.35c-1.17,0.42-2.41,0.78-3.72,1.08s-2.64,0.53-4.02,0.69c-1.38,0.16-2.71,0.24-3.99,0.24
		c-2.75,0-5.29-0.46-7.62-1.38c-2.33-0.92-4.33-2.19-6-3.83c-1.67-1.63-2.98-3.58-3.94-5.83c-0.95-2.26-1.43-4.72-1.43-7.4
		c0-2.68,0.48-5.15,1.43-7.4c0.95-2.26,2.27-4.2,3.94-5.83c1.67-1.63,3.67-2.91,6-3.83c2.33-0.92,4.87-1.38,7.62-1.38
		c1.28,0,2.61,0.08,3.99,0.25c1.38,0.17,2.72,0.4,4.02,0.72c1.3,0.31,2.54,0.67,3.72,1.07c1.17,0.4,2.18,0.86,3.03,1.38V44.13z"/>
	<path d="M232.3,35.54v0.55l-0.44,0.06c-0.73,0.07-1.32,0.38-1.76,0.91c-0.44,0.53-0.66,1.2-0.66,2.01v13.27l14.92-13.27
		c0.92-0.81,1.51-1.48,1.79-2.01c0.28-0.53,0.16-0.83-0.36-0.91l-0.33-0.06v-0.55h6.27v0.55c-0.92,0.11-1.85,0.36-2.81,0.74
		c-0.95,0.39-1.91,0.98-2.86,1.79l-13.54,12.11c0.66,0.7,1.81,1.89,3.44,3.58c1.63,1.69,3.57,3.69,5.81,6
		c1.95,1.98,3.63,3.68,5.06,5.09c1.43,1.41,2.68,2.57,3.74,3.47c1.06,0.9,1.97,1.56,2.72,1.98c0.75,0.42,1.38,0.63,1.9,0.63v0.66
		h-1.27c-1.87,0-3.96-0.76-6.27-2.28c-2.31-1.52-5.1-3.97-8.37-7.35c-2.24-2.31-4.17-4.31-5.81-6c-1.63-1.69-2.78-2.88-3.44-3.58
		l-0.06,0.06l-0.55-0.66v16.02c0,0.81,0.22,1.48,0.66,2.01c0.44,0.53,1.03,0.84,1.76,0.91l0.44,0.06v0.55h-9.03v-0.55l0.44-0.06
		c0.73-0.07,1.32-0.38,1.76-0.91c0.44-0.53,0.66-1.2,0.66-2.01V39.06c0-0.81-0.22-1.48-0.66-2.01c-0.44-0.53-1.03-0.83-1.76-0.91
		l-0.44-0.06v-0.55H232.3z"/>
	<path d="M279.36,71.87v-0.55l0.88-0.06c0.81-0.07,1.38-0.38,1.71-0.91c0.33-0.53,0.35-1.2,0.06-2.01l-3.52-9.47h-14.26l-3.19,9.14
		c-0.22,0.92-0.13,1.67,0.28,2.26c0.4,0.59,1.06,0.92,1.98,0.99l0.61,0.06v0.55h-7.93v-0.55c0.84-0.11,1.58-0.36,2.2-0.74
		s1.14-1,1.54-1.84l12.05-34.02h0.83l13.1,33.91c0.84,1.8,2.02,2.7,3.52,2.7v0.55H279.36z M278.15,58.05l-7.05-18.99l-6.61,18.99
		H278.15z"/>
</g>
<g>
	<path d="M93.36,106.77l-0.1,0.58l-0.39,0.05c-0.64,0.06-1.16,0.33-1.54,0.79c-0.39,0.47-0.58,1.05-0.58,1.76v1.44
		c0,2.12-0.72,4-2.17,5.64c1.09,0.96,2.08,1.73,2.99,2.31c0.9,0.58,1.72,1,2.48,1.28c0.75,0.27,1.47,0.42,2.14,0.43
		c0.67,0.02,1.31-0.02,1.93-0.12v0.43c-0.87,0.16-1.73,0.25-2.58,0.26c-0.85,0.02-1.73-0.07-2.62-0.26
		c-0.9-0.19-1.83-0.52-2.79-0.99c-0.96-0.47-1.99-1.1-3.08-1.9c-1.29,0.96-2.83,1.72-4.62,2.26c-1.8,0.55-3.79,0.82-5.97,0.82
		c-1.48,0-2.84-0.19-4.09-0.58c-1.25-0.39-2.33-0.92-3.23-1.61c-0.9-0.69-1.61-1.51-2.12-2.46c-0.52-0.95-0.77-1.98-0.77-3.11
		c0-0.9,0.21-1.8,0.63-2.7c0.42-0.9,1-1.76,1.76-2.58c0.75-0.82,1.66-1.59,2.72-2.31c1.06-0.72,2.23-1.34,3.52-1.85
		c-0.93-1.48-1.66-2.84-2.19-4.09s-0.79-2.34-0.79-3.28c0-1.12,0.18-2.16,0.53-3.11c0.35-0.95,0.84-1.77,1.47-2.46
		c0.63-0.69,1.37-1.23,2.24-1.61c0.87-0.39,1.81-0.58,2.84-0.58c1.03,0,1.97,0.14,2.84,0.43s1.61,0.69,2.24,1.2
		c0.63,0.51,1.11,1.12,1.47,1.83c0.35,0.71,0.53,1.48,0.53,2.31c0,1-0.22,1.97-0.65,2.91c-0.43,0.95-1.04,1.81-1.81,2.58
		c-0.77,0.77-1.69,1.43-2.75,1.97c-1.06,0.55-2.22,0.95-3.47,1.2c0.64,0.96,1.42,2.03,2.34,3.2c0.92,1.17,1.87,2.35,2.87,3.54
		c0.99,1.19,1.98,2.31,2.96,3.37c0.98,1.06,1.87,1.96,2.67,2.7c0.64-0.74,1.15-1.54,1.52-2.41c0.37-0.87,0.55-1.8,0.55-2.79v-1.44
		c0-0.71-0.19-1.29-0.58-1.76c-0.39-0.47-0.9-0.73-1.54-0.79l-0.39-0.05v-0.48H93.36z M86.43,118.09c-0.9-0.74-1.87-1.65-2.91-2.72
		c-1.05-1.08-2.09-2.23-3.13-3.47c-1.05-1.24-2.03-2.47-2.96-3.71c-0.93-1.24-1.73-2.35-2.41-3.35c-1.93,0.9-3.48,2.07-4.65,3.52
		c-1.17,1.44-1.76,2.94-1.76,4.48c0,1.09,0.22,2.1,0.67,3.03c0.45,0.93,1.08,1.73,1.9,2.41c0.82,0.67,1.79,1.2,2.91,1.59
		c1.12,0.39,2.36,0.58,3.71,0.58c1.73,0,3.33-0.21,4.79-0.63C84.06,119.41,85.33,118.83,86.43,118.09z M73.76,95.93
		c0,0.93,0.29,2.02,0.87,3.28c0.58,1.25,1.38,2.65,2.41,4.19c0.99-0.22,1.92-0.59,2.77-1.11c0.85-0.51,1.58-1.13,2.19-1.85
		c0.61-0.72,1.08-1.53,1.42-2.43c0.34-0.9,0.51-1.83,0.51-2.79c0-1.54-0.49-2.82-1.47-3.83c-0.98-1.01-2.24-1.52-3.78-1.52
		c-1.44,0-2.62,0.56-3.54,1.69c-0.92,1.12-1.37,2.57-1.37,4.33V95.93z"/>
</g>
<g>
	<path d="M117.39,88.63v-0.55l14.59,0.06c1.65,0,3.17,0.23,4.54,0.69c1.38,0.46,2.57,1.1,3.58,1.93s1.8,1.82,2.37,2.97
		c0.57,1.16,0.85,2.41,0.85,3.77c0,1.21-0.25,2.33-0.74,3.36c-0.5,1.03-1.18,1.95-2.06,2.75c-0.88,0.81-1.94,1.49-3.16,2.04
		c-1.23,0.55-2.6,0.94-4.1,1.16c0.7,0.84,1.98,2.37,3.85,4.57c1.87,2.2,4.11,4.83,6.72,7.87c0.95,1.1,1.69,1.95,2.2,2.56
		s0.94,1.06,1.29,1.35c0.35,0.29,0.65,0.47,0.91,0.52s0.59,0.08,0.99,0.08v0.66h-1.27c-0.84,0-1.55-0.06-2.12-0.17
		s-1.14-0.36-1.71-0.74c-0.57-0.39-1.21-0.96-1.93-1.73c-0.72-0.77-1.66-1.83-2.83-3.19c-2.35-2.75-4.39-5.15-6.14-7.18
		c-1.74-2.04-2.98-3.5-3.72-4.38h-5.94v13.87c0,0.81,0.22,1.48,0.66,2.01c0.44,0.53,1.03,0.84,1.76,0.91l0.44,0.06v0.55h-9.03v-0.55
		l0.44-0.06c0.73-0.07,1.32-0.38,1.76-0.91s0.66-1.2,0.66-2.01V91.55c0-0.81-0.22-1.48-0.66-2.01s-1.03-0.84-1.76-0.91H117.39z
		 M130.33,106.19c1.4,0,2.67-0.22,3.83-0.66c1.16-0.44,2.15-1.05,2.97-1.82c0.83-0.77,1.48-1.7,1.95-2.78
		c0.48-1.08,0.72-2.25,0.72-3.5c0-1.25-0.19-2.39-0.58-3.44s-0.93-1.94-1.62-2.7c-0.7-0.75-1.52-1.34-2.48-1.76
		c-0.95-0.42-2-0.63-3.14-0.63h-8.42v17.28H130.33z"/>
	<path d="M151.91,88.63v-0.55h13.27c2.75,0,5.29,0.45,7.62,1.35c2.33,0.9,4.34,2.16,6.03,3.77c1.69,1.62,3.01,3.53,3.96,5.75
		c0.95,2.22,1.43,4.65,1.43,7.29s-0.41,5.07-1.24,7.29c-0.83,2.22-1.98,4.14-3.47,5.75c-1.49,1.62-3.25,2.87-5.28,3.77
		c-2.04,0.9-4.27,1.35-6.69,1.35h-15.63v-0.55l0.44-0.06c0.73-0.07,1.32-0.38,1.76-0.91c0.44-0.53,0.66-1.2,0.66-2.01V91.6
		c0-0.81-0.22-1.48-0.66-2.01c-0.44-0.53-1.03-0.83-1.76-0.91L151.91,88.63z M158.07,123.58h9.47c1.95,0,3.73-0.43,5.37-1.29
		c1.63-0.86,3.05-2.06,4.24-3.61c1.19-1.54,2.12-3.37,2.78-5.48c0.66-2.11,0.99-4.43,0.99-6.96s-0.39-4.85-1.18-6.96
		c-0.79-2.11-1.88-3.94-3.28-5.48c-1.4-1.54-3.05-2.74-4.98-3.61c-1.93-0.86-4.03-1.29-6.3-1.29h-7.1V123.58z"/>
	<path d="M217.3,118.19h-0.06c-0.15,0.95-0.33,2-0.55,3.14c-0.22,1.14-0.39,2.17-0.5,3.08h-26.42l22.84-35.5h-13.05
		c-1.03,0-2.13,0.32-3.3,0.96c-1.17,0.64-2.18,1.48-3.03,2.5l-0.88,1.05h-0.44c0.18-0.73,0.4-1.56,0.66-2.48
		c0.26-0.92,0.48-1.74,0.66-2.48h0.06l0.11-0.39h23.56l-22.95,35.5h15.74c1.14,0,2.26-0.37,3.36-1.1c1.1-0.73,1.96-1.67,2.59-2.81
		l0.94-1.76c0.07,0.04,0.17,0.07,0.28,0.11C217.1,118.1,217.23,118.15,217.3,118.19z"/>
	<path d="M241.68,108.66h-0.44l-0.22-0.44c-0.33-0.81-0.94-1.47-1.82-1.98c-0.88-0.51-1.85-0.77-2.92-0.77h-7.93v18.11h10.13
		c1.28,0,2.59-0.4,3.91-1.21c1.32-0.81,2.37-1.83,3.14-3.08l0.55-0.83h0.39c-0.15,0.81-0.31,1.73-0.5,2.78
		c-0.18,1.05-0.35,1.97-0.5,2.78h-0.06l-0.06,0.39H222.2v-0.55l0.44-0.06c0.73-0.07,1.32-0.38,1.76-0.91
		c0.44-0.53,0.66-1.2,0.66-2.01V91.6c0-0.81-0.22-1.48-0.66-2.01c-0.44-0.53-1.03-0.83-1.76-0.91l-0.44-0.06v-0.55h22.9v5.94h-0.39
		l-0.39-0.83c-0.55-1.25-1.41-2.27-2.59-3.08c-1.17-0.81-2.4-1.21-3.69-1.21h-9.69v15.74h7.93c1.06,0,2.05-0.22,2.94-0.66
		c0.9-0.44,1.49-1.03,1.79-1.76l0.22-0.44h0.44V108.66z"/>
	<path d="M252.58,88.63v-0.55h5.83l22.79,31.54V91.6c0-0.81-0.22-1.48-0.66-2.01c-0.44-0.53-1.03-0.83-1.76-0.91l-0.44-0.06v-0.55
		h6.72v0.55l-0.44,0.06c-0.73,0.07-1.32,0.38-1.76,0.91c-0.44,0.53-0.66,1.2-0.66,2.01v33.47h-1.05
		c-4.11-5.72-8.22-11.41-12.33-17.06c-4.11-5.65-8.24-11.34-12.38-17.06v29.94c0,0.81,0.22,1.48,0.66,2.01
		c0.44,0.53,1.03,0.84,1.76,0.91l0.44,0.06v0.55h-6.72v-0.55l0.44-0.06c0.73-0.07,1.32-0.38,1.76-0.91c0.44-0.53,0.66-1.2,0.66-2.01
		V91.6c0-0.81-0.22-1.48-0.66-2.01c-0.44-0.53-1.03-0.83-1.76-0.91L252.58,88.63z M266.73,86.1c0.62-1.1,1.23-2.16,1.82-3.19
		c0.55-0.92,1.1-1.81,1.65-2.67c0.55-0.86,1.03-1.57,1.43-2.12c0.55-0.88,1.02-1.6,1.4-2.17c0.39-0.57,0.61-0.85,0.69-0.85
		c0.26,0,0.61,0.16,1.05,0.47c0.44,0.31,0.66,0.56,0.66,0.74c0,0.07-0.21,0.39-0.63,0.96c-0.42,0.57-0.96,1.24-1.62,2.01
		c-0.4,0.55-0.94,1.22-1.62,2.01c-0.68,0.79-1.35,1.57-2.01,2.34c-0.77,0.88-1.58,1.8-2.42,2.75L266.73,86.1z"/>
</g>
<g>
	<path class="st0" d="M317.57,135.3c0,0-0.85,2.04-1.54,2.43c-0.75,0.43-1.52,0.66-2.26,1.13c-0.38,0.24-1.94,1.43-1.45,0.53
		c-0.31,0.57-1.27,0.39-1.78,0.56c0.91,0.08-1.7,0.65-1.28-0.14c-0.25,0.46-3.73,0.32-4.29,0.36c-1.95,0.15-3.9,0.36-5.84,0.61
		c-4.39,0.56-8.76,1.32-13.12,2.06c-4.06,0.69-8.11,1.8-12.17,2.41c-1.38,0.21-2.87-0.17-4.2,0.22c-0.8,0.23-1.36,0.83-2.37,1.07
		c0,0,1.01-0.78,1.03-0.61c-0.02-0.14-1.1,0.08-1.23,0.08c0.19-0.19,0.4-0.35,0.63-0.48c-0.36,0.12-3.84,0.11-5.71-0.09
		c0.01,0.01,0.01,0.01,0.02,0.01c0,0-0.01-0.01-0.02-0.01c-0.08-0.01-0.15-0.02-0.22-0.03c0.33,0.11,0.73,0.5,0.82,0.44
		c-0.18,0.11-1.14,0.49-1.06,0.74c0.03,0.09,2.14,0.41,2.33,0.46c0.15,0.04-2.09,0.78-1.8,0.26c-0.12,0.21-1.05,0.48-1.08,0.56
		c0.07,0.12,0.17,0.19,0.31,0.21c-0.57,0.17-1.19,0.03-1.78,0.01c0.02-0.14-0.4-0.46-0.76,0.1c0.07,0.03,0.82-0.1,0.82,0.05
		c-4.87,1.79-10.18,2.46-15.19,3.82c-5.43,1.47-10.71,3.29-16.07,4.99c-1.95,0.62-4.82,1.75-6.73,0.52
		c-0.99-0.64-2.51-2.7-3.08-3.71c-1.71-3.01,0.73-6.02,3.57-7.01c-0.01,0.92,0.82,1.58,1.67,1.04c-0.42-0.04-0.83-0.08-1.25-0.14
		c0.71-0.42,1.82-0.04,2.58-0.18c0.18-0.03,0.56-0.29,1-0.42c0.5-0.14,1.13-0.29,1.57-0.4c-0.03-0.02-0.03-0.05,0.06-0.04
		c0.01,0.01,0.01,0.01,0.01,0.02c0.01,0,0.01,0,0.02,0c0.45-0.12,0.94-0.25,1.44-0.39c-0.03-0.02-0.06-0.1,0.03-0.04
		c0,0.02,0,0.03-0.01,0.03c0.74-0.2,1.53-0.43,2.34-0.68c-0.01,0.02,0,0.05,0.03,0.08c0.02-0.05,0.03-0.08,0.03-0.1
		c1.07-0.32,2.17-0.67,3.23-1.04c3.99-1.38,8.33-2.39,12.52-3.24c3.02-0.61,5.91-1.15,8.83-2.12c0.67-0.22,0.96-0.27,1.53-0.41
		c0.62-0.15,1.98-0.67,2.62-0.32c-0.15-0.08,2.16-0.63,2.98-0.81c-0.01-0.02,0-0.03,0.04-0.01c0,0,0,0,0,0
		c0.1-0.02,0.18-0.04,0.22-0.04c0.15-0.02,0.3-0.05,0.45-0.07c-0.02-0.02-0.03-0.05,0.03-0.03c0.01,0.01,0.01,0.02,0.01,0.03
		c1.1-0.18,2.16-0.46,3.28-0.75c5.22-1.39,10.61-2.15,15.9-3.22c4.01-0.81,8.08-1.5,12.1-1.98c1.33-0.16,2.66-0.33,3.99-0.5
		c0.01,0.01,0.01,0.03,0.02,0.05c0.02-0.02,0.03-0.04,0.03-0.06c1.26-0.16,2.52-0.32,3.78-0.46c0.57-0.06,3.18-0.83,3.61-0.4
		c-0.18,0.06-0.36,0.11-0.55,0.15c1.38,0.84,4.14-0.22,5.81,0.15c0.7,0.15,4.28,2.4,3.64,2.51
		C316.66,132.87,317.51,135.33,317.57,135.3z M218.1,151.69 M224.16,147.81c0.02,0,0.07,0,0.18-0.01
		C224.52,147.78,224.21,147.8,224.16,147.81z M224.82,147.52 M225.19,147.38 M226.01,147.37 M228.38,146.69 M230.07,145.99
		 M230.61,145.87 M231.6,145.62c-0.02,0.01-0.04,0.01-0.06,0.02C231.55,145.59,231.59,145.58,231.6,145.62z M232.82,145.17
		 M234.9,144.74 M238.38,143.77 M253.84,140.63c-0.04,0.01-0.09,0.02-0.14,0.03c-0.01,0.01-0.03,0.03-0.07,0.06
		c-0.05,0-0.02-0.02,0.01-0.05c-0.61,0.08-1.56-0.05-2,0.39c0.43,0.16,0.87,0.27,1.33,0.34
		C252.49,141.14,253.81,140.78,253.84,140.63z M253.17,141.76c0.18,0.12,0.37,0.19,0.58,0.21
		C254.12,141.92,253.17,141.48,253.17,141.76z M253.24,140.44 M254.07,141.97 M255.38,142.04c0.01-0.07-0.88,0.11-0.94,0.3
		c0.13,0.05,0.26,0.07,0.39,0.05C255.02,142.27,255.2,142.15,255.38,142.04z M254.59,141.59c0.07-0.03,0.22,0.04,0.32-0.17
		C254.73,141.57,254.86,141.48,254.59,141.59z M254.96,141.47 M255.18,141.55 M256.17,143.06c0.01,0.01-0.01-0.03-0.03-0.08
		c-0.01,0.01-0.02,0.01-0.06,0c-0.01-0.06,0.03-0.04,0.05-0.02c-0.02-0.07-0.05-0.14-0.05-0.16c0.26,0,0.4-0.01,0.46-0.01
		c-0.01,0-0.03,0.01-0.04,0.01c0.02,0.02,0.03,0.03,0.03,0.04c0.12-0.08,0.88-0.04,0.9-0.12c0.06-0.27-1.7-0.06-1.9,0
		c0.05,0.03,0.1,0.05,0.14,0.08c0.01-0.01,0.03,0,0.05,0c-0.02,0-0.03,0-0.05,0C255.84,142.89,256,142.98,256.17,143.06z
		 M255.73,142.8 M256.58,142.92c-0.06-0.03-0.07-0.06-0.06-0.07c-0.01-0.01-0.02-0.03-0.03-0.04
		C256.47,142.82,256.47,142.86,256.58,142.92z M256.54,142.79 M256.55,141.15 M258.78,143.63c0.43,0.15-1.28-0.96-1.98-0.23
		C256.96,143.23,258.55,143.62,258.78,143.63z M257.22,142.33c0.46-0.04,1.27,0.65,1.54-0.09c0.16-0.08,0.31-0.15,0.47-0.23
		C259.23,142.05,257.38,142.12,257.22,142.33z M257.46,145.43c0.22-0.15,0.43-0.29,0.64-0.44c-0.24,0.14-0.7,0.36-0.87,0.49
		c0.34,0.04,0.64-0.04,0.93-0.24C258.44,144.83,257.43,145.45,257.46,145.43z M257.32,143.97 M257.43,145.44 M257.86,144
		c-0.1-0.12-0.22-0.13-0.36-0.04C257.47,144.02,257.81,144.11,257.86,144z M258.56,144.01c-0.01,0-0.01,0-0.02,0.01
		C258.54,144.01,258.55,144.01,258.56,144.01z M258.96,145.58c-0.28,0.02-0.32,0.07-0.1,0.14
		C259.2,145.69,259.23,145.64,258.96,145.58z M261.37,145.51c0.04-0.09,0.11-0.13,0.18-0.14c-0.23-0.04-0.42-0.07-0.56-0.12
		c0.09,0.05,0.19,0.1,0.21,0.1c-0.13,0.17-2.51-0.64-2.44-0.14c0.05,0.35,2.72,1.11,2.87,0.72
		C261.53,145.8,261.44,145.66,261.37,145.51z M259.5,148.07c-0.01,0.06-0.09,0.09-0.29,0C259.3,148.06,259.4,148.06,259.5,148.07z
		 M259.21,143.35 M259.51,147.11c-0.01,0-0.01,0-0.02,0c-0.01,0-0.01,0-0.02,0C259.49,147.11,259.5,147.11,259.51,147.11z
		 M259.65,147.1c-0.02,0-0.06,0-0.1,0.01C259.58,147.1,259.62,147.1,259.65,147.1z M259.62,143.08 M259.9,142.24 M260.27,138.35
		 M260.39,144.61 M261.22,147.52c-0.28,0-0.32,0.04-0.12,0.14C261.08,147.66,261.57,147.46,261.22,147.52z M261.1,144.69
		c0.01-0.03,0.34,0.15,0.39-0.02C261.53,144.55,261.14,144.57,261.1,144.69z M261.13,146.71 M261.43,146.55 M261.57,145.15
		c0.04-0.05,0.08-0.09,0-0.12C261.5,145.01,261.42,145.02,261.57,145.15z M262.39,144.88c0.16-0.02,0.32-0.04,0.47-0.06
		c-0.01-0.24-1.38-0.36-1.36-0.29C261.53,144.67,262.27,144.87,262.39,144.88z M261.57,144.05 M261.85,145.02 M261.99,143.49
		 M262.11,146.36 M263.7,144.96c0.07-0.02-0.84,0.15-1.06,0.23C262.63,145.2,263.63,144.99,263.7,144.96z M262.66,144.49
		 M263.5,146.5 M264.3,147.08 M264.3,147.08c0.01,0,0.01,0,0.02,0h0C264.31,147.08,264.3,147.08,264.3,147.08z M264.98,146.78
		c0.2,0.24-0.46,0.29-0.67,0.3C264.37,147.08,264.85,146.62,264.98,146.78z M264.95,146.31c0.34,0,0.68,0,1.03,0
		c-0.27,0.16-1.37,0.69-1.64,0.33C264.54,146.53,264.74,146.42,264.95,146.31z M264.38,145.43 M264.49,144.6 M267.82,146
		 M267.88,145.99c-0.02,0-0.03,0-0.04,0C267.89,145.99,267.94,145.99,267.88,145.99z M267.84,145.28 M268.53,145.03
		c-0.33-0.15-0.69,0.17-0.3,0.24C268.33,145.19,268.43,145.11,268.53,145.03z M268.09,146.39c0-0.01-0.01-0.03-0.01-0.04
		c0,0,0,0,0,0C268.09,146.38,268.09,146.38,268.09,146.39z M268.08,146.36 M268.09,146.39 M268.86,145.02 M269.78,144.86
		 M269.89,145.85 M271.15,145.16 M271.71,144.47 M271.98,145.02 M272.47,145.62 M274.35,144.88 M299.37,131.08
		c-0.02,0-0.03,0-0.05,0.01C299.29,130.97,299.38,131.01,299.37,131.08z M304.9,139.33 M306.89,139.14
		c-0.01-0.31-0.66,0.06-0.33,0.18C306.71,139.33,306.82,139.27,306.89,139.14z M307.65,139.18 M307.67,139.18c0.01,0,0.01,0,0.02,0
		C308.08,139.21,307.77,139.19,307.67,139.18z M308.09,139.19 M308.23,139.47 M308.3,139.67c0.06,0.13,0.15,0.18,0.28,0.14
		C308.81,139.55,308.49,139.6,308.3,139.67z M309.2,139.19 M309.45,139.79c0.09,0.08,0.18,0.15,0.26,0.23
		C310.05,140.02,309.41,139.54,309.45,139.79z M309.66,139.06c-0.29,0.15-0.1,0.18,0.23,0.12
		C310.18,139.13,309.79,139.09,309.66,139.06z M309.85,139.74 M309.95,139.66c0-0.01-0.03-0.02-0.06,0.07
		C309.92,139.72,309.94,139.7,309.95,139.66z M310.68,139.1c0,0,0-0.01-0.01-0.02c-0.15-0.06-0.47-0.18-0.55,0.05
		c0.22-0.07,0.26-0.05,0.12,0.05C310.39,139.14,310.53,139.11,310.68,139.1z M310.42,139.05 M310.71,139.09
		c-0.01,0-0.02-0.01-0.03-0.01c0,0.01,0,0.01,0.01,0.02C310.69,139.1,310.7,139.1,310.71,139.09z M310.75,140.02
		C310.75,140.02,310.74,140.02,310.75,140.02C310.73,140.01,310.74,140.02,310.75,140.02z M310.75,140.02c0.02,0,0.03,0,0.04,0
		C310.78,140.03,310.76,140.03,310.75,140.02z M311.08,138.79c0.13,0.07,0.26,0.13,0.39,0.2
		C312.26,139.15,310.65,138.52,311.08,138.79z M311.84,138.49 M311.97,139.97 M312.2,138.59c-0.03,0.02-0.15,0.07-0.09,0.04
		C312.17,138.6,312.19,138.59,312.2,138.59z M312.64,138.91c-0.2,0.06-0.23,0.14-0.08,0.25
		C312.79,139.06,312.82,138.98,312.64,138.91z M312.68,136.83 M312.95,138.49 M313.09,131.55 M313.37,131.69 M313.98,138.43
		c-0.05-0.06-0.26-0.3-0.26-0.08C313.84,138.36,313.92,138.34,313.98,138.43z M314.17,131.83c-0.21,0.07-0.23,0.16-0.06,0.27
		C314.31,132.02,314.33,131.93,314.17,131.83z M314.2,136.69 M314.23,134.45 M314.48,132.11 M315.34,133.66
		c-0.14,0.06-0.21,0.17-0.21,0.32C315.46,134.38,315.35,133.76,315.34,133.66z M315.59,134.74 M315.76,134.45 M316.17,134.77
		c-0.11-0.09-0.23-0.12-0.36-0.08C315.69,135.07,316.24,134.8,316.17,134.77z M316.35,136.17c0.03-0.18-0.42-0.29-0.54-0.25
		C315.83,135.96,316.31,136.45,316.35,136.17z M316.01,135.99c-0.02,0-0.04,0-0.06,0C315.97,135.98,315.99,135.99,316.01,135.99z
		 M316.01,135.99 M316.06,135.53 M316.57,134.74 M316.98,135.3c-0.24,0.16-0.26,0.25-0.07,0.28
		C317.07,135.49,317.1,135.4,316.98,135.3z M316.84,135.99"/>
</g>
</svg>
